<svg xmlns="http://www.w3.org/2000/svg" xmlns:xlink="http://www.w3.org/1999/xlink" width="500" zoomAndPan="magnify" viewBox="0 0 375 374.999991" height="500" preserveAspectRatio="xMidYMid meet" version="1.0"><defs><g/></defs><g fill="#000000" fill-opacity="1"><g transform="translate(116.019453, 217.280498)"><g><path d="M 13.515625 0.53125 C 10.285156 0.53125 7.757812 -0.738281 5.9375 -3.28125 C 4.125 -5.820312 3.21875 -9.742188 3.21875 -15.046875 L 3.21875 -37.390625 C 3.21875 -42.140625 4.144531 -45.757812 6 -48.25 C 7.863281 -50.738281 10.816406 -51.984375 14.859375 -51.984375 C 19.910156 -51.984375 23.113281 -50.101562 24.46875 -46.34375 C 25.289062 -44.09375 25.703125 -41.007812 25.703125 -37.09375 L 25.703125 -33.4375 L 18.40625 -33.4375 L 18.40625 -38.8125 C 18.40625 -41.164062 18.15625 -42.816406 17.65625 -43.765625 C 17.15625 -44.722656 16.21875 -45.203125 14.84375 -45.203125 C 13.476562 -45.203125 12.507812 -44.632812 11.9375 -43.5 C 11.375 -42.363281 11.09375 -40.34375 11.09375 -37.4375 L 11.09375 -15.15625 C 11.09375 -11.789062 11.34375 -9.445312 11.84375 -8.125 C 12.351562 -6.800781 13.34375 -6.140625 14.8125 -6.140625 C 16.289062 -6.140625 17.332031 -6.847656 17.9375 -8.265625 C 18.550781 -9.679688 18.859375 -12.078125 18.859375 -15.453125 L 18.859375 -22.375 L 14.921875 -22.375 L 14.921875 -28.0625 L 25.703125 -28.0625 L 25.703125 0 L 22.203125 0 L 21 -5.046875 C 20.59375 -3.316406 19.695312 -1.953125 18.3125 -0.953125 C 16.925781 0.0351562 15.328125 0.53125 13.515625 0.53125 Z M 13.515625 0.53125 "/></g></g></g><g fill="#000000" fill-opacity="1"><g transform="translate(168.194686, 217.280498)"><g><path d="M 11.65625 -6.078125 L 14.21875 -6.078125 C 15.664062 -6.078125 16.710938 -6.539062 17.359375 -7.46875 C 18.015625 -8.40625 18.34375 -10.117188 18.34375 -12.609375 L 18.3125 -38 C 18.3125 -40.664062 17.984375 -42.5625 17.328125 -43.6875 C 16.679688 -44.820312 15.554688 -45.390625 13.953125 -45.390625 L 11.65625 -45.390625 Z M 3.828125 0 L 3.828125 -51.40625 L 15.359375 -51.40625 C 19.140625 -51.40625 21.878906 -50.289062 23.578125 -48.0625 C 25.285156 -45.832031 26.140625 -42.546875 26.140625 -38.203125 L 26.171875 -15.015625 C 26.171875 -9.835938 25.3125 -6.039062 23.59375 -3.625 C 21.882812 -1.207031 19.050781 0 15.09375 0 Z M 3.828125 0 "/></g></g></g><g fill="#000000" fill-opacity="1"><g transform="translate(197.541391, 217.280498)"><g><path d="M 4.140625 0 L 4.140625 -51.40625 L 11.96875 -51.40625 L 11.96875 0 Z M 4.140625 0 "/></g></g></g><g fill="#000000" fill-opacity="1"><g transform="translate(213.660173, 217.280498)"><g><path d="M 13.515625 0.53125 C 10.285156 0.53125 7.757812 -0.738281 5.9375 -3.28125 C 4.125 -5.820312 3.21875 -9.742188 3.21875 -15.046875 L 3.21875 -37.390625 C 3.21875 -42.140625 4.144531 -45.757812 6 -48.25 C 7.863281 -50.738281 10.816406 -51.984375 14.859375 -51.984375 C 19.910156 -51.984375 23.113281 -50.101562 24.46875 -46.34375 C 25.289062 -44.09375 25.703125 -41.007812 25.703125 -37.09375 L 25.703125 -33.4375 L 18.40625 -33.4375 L 18.40625 -38.8125 C 18.40625 -41.164062 18.15625 -42.816406 17.65625 -43.765625 C 17.15625 -44.722656 16.21875 -45.203125 14.84375 -45.203125 C 13.476562 -45.203125 12.507812 -44.632812 11.9375 -43.5 C 11.375 -42.363281 11.09375 -40.34375 11.09375 -37.4375 L 11.09375 -15.15625 C 11.09375 -11.789062 11.34375 -9.445312 11.84375 -8.125 C 12.351562 -6.800781 13.34375 -6.140625 14.8125 -6.140625 C 16.289062 -6.140625 17.332031 -6.847656 17.9375 -8.265625 C 18.550781 -9.679688 18.859375 -12.078125 18.859375 -15.453125 L 18.859375 -22.375 L 14.921875 -22.375 L 14.921875 -28.0625 L 25.703125 -28.0625 L 25.703125 0 L 22.203125 0 L 21 -5.046875 C 20.59375 -3.316406 19.695312 -1.953125 18.3125 -0.953125 C 16.925781 0.0351562 15.328125 0.53125 13.515625 0.53125 Z M 13.515625 0.53125 "/></g></g></g><g fill="#000000" fill-opacity="1"><g transform="translate(242.860866, 217.280498)"><g><path d="M 4.140625 0 L 4.140625 -51.40625 L 11.96875 -51.40625 L 11.96875 0 Z M 4.140625 0 "/></g></g></g><g fill="#000000" fill-opacity="1"><g transform="translate(143.614545, 190.319589)"><g><path d="M 24.59375 -12.65625 C 24.59375 -8.238281 23.617188 -4.945312 21.671875 -2.78125 C 19.734375 -0.613281 16.910156 0.46875 13.203125 0.46875 C 9.503906 0.46875 6.710938 -0.65625 4.828125 -2.90625 C 2.953125 -5.15625 2.015625 -8.40625 2.015625 -12.65625 C 2.015625 -21.382812 5.789062 -25.75 13.34375 -25.75 C 17.207031 -25.75 20.046875 -24.679688 21.859375 -22.546875 C 23.679688 -20.421875 24.59375 -17.125 24.59375 -12.65625 Z M 20.1875 -12.65625 C 20.1875 -16.144531 19.664062 -18.679688 18.625 -20.265625 C 17.59375 -21.847656 15.851562 -22.640625 13.40625 -22.640625 C 10.945312 -22.640625 9.164062 -21.832031 8.0625 -20.21875 C 6.96875 -18.601562 6.421875 -16.082031 6.421875 -12.65625 C 6.421875 -9.320312 6.960938 -6.816406 8.046875 -5.140625 C 9.128906 -3.472656 10.832031 -2.640625 13.15625 -2.640625 C 15.675781 -2.640625 17.476562 -3.445312 18.5625 -5.0625 C 19.644531 -6.6875 20.1875 -9.21875 20.1875 -12.65625 Z M 20.1875 -12.65625 "/></g></g></g><path stroke-linecap="butt" transform="matrix(1.121416, 0, 0, 1.121416, 145.223009, 198.987659)" fill="none" stroke-linejoin="miter" d="M -0.000314169 1.99998 L 21.568397 1.99998 " stroke="#000000" stroke-width="4" stroke-opacity="1" stroke-miterlimit="4"/></svg>